<svg viewBox="0 0 31 53" xmlns="http://www.w3.org/2000/svg"><g fill="#444"><path d="m28 6c.024.165 0 .329 0 .5 0 1.933-1.566 3.5-3.5 3.5s-3.5-1.567-3.5-3.5c0-.171-.024-.335 0-.5h-2c.024.165 0 .329 0 .5 0 1.933-1.566 3.5-3.5 3.5s-3.5-1.567-3.5-3.5c0-.171-.024-.335 0-.5h-2c.024.165 0 .329 0 .5 0 1.933-1.566 3.5-3.5 3.5s-3.5-1.567-3.5-3.5c0-.171-.024-.335 0-.5h-2v9h29v-9z"/><circle cx="2" cy="2" r="2"/><circle cx="11" cy="2" r="2"/><circle cx="20" cy="2" r="2"/><circle cx="29" cy="2" r="2"/><path d="m21.359 38.648c1.624-1.548 2.641-3.727 2.641-6.148s-1.017-4.6-2.641-6.148c-1.423 1.357-2.359 3.605-2.359 6.148s.936 4.791 2.359 6.148z"/><path d="m9.641 26.352c-1.624 1.548-2.641 3.727-2.641 6.148s1.017 4.6 2.641 6.148c1.423-1.357 2.359-3.605 2.359-6.148s-.936-4.791-2.359-6.148z"/><path d="m17 32.5c0-2.96 1.075-5.606 2.756-7.35-1.253-.727-2.703-1.15-4.256-1.15s-3.003.423-4.256 1.15c1.681 1.744 2.756 4.39 2.756 7.35s-1.075 5.606-2.756 7.35c1.253.727 2.703 1.15 4.256 1.15s3.003-.423 4.256-1.15c-1.681-1.744-2.756-4.39-2.756-7.35z"/><path d="m27 20v22.767l-11.5 6.755-11.5-6.755v-22.767zm3-3h-29v27.484l14.5 8.516 14.5-8.516z"/></g></svg>