<?xml version="1.0" encoding="utf-8"?>
<!-- Generator: Adobe Illustrator 27.3.1, SVG Export Plug-In . SVG Version: 6.00 Build 0)  -->
<svg version="1.1" xmlns="http://www.w3.org/2000/svg" viewBox="1066.021 -145 31 53">
  <polyline fill="none" class="royals-diamond-mask" points="1093.021,-125 1093.021,-102.233 1081.521,-95.479 1070.021,-102.233 1070.021,-125 1093.021,-125 	
    "/>
  <g class="royals-crown">
    <path d="M1094.021-139c0.024,0.165,0,0.329,0,0.5c0,1.933-1.566,3.5-3.5,3.5s-3.5-1.567-3.5-3.5
      c0-0.171-0.024-0.335,0-0.5h-2c0.024,0.165,0,0.329,0,0.5c0,1.933-1.566,3.5-3.5,3.5s-3.5-1.567-3.5-3.5
      c0-0.171-0.024-0.335,0-0.5h-2c0.024,0.165,0,0.329,0,0.5c0,1.933-1.566,3.5-3.5,3.5s-3.5-1.567-3.5-3.5
      c0-0.171-0.024-0.335,0-0.5h-2v9h29v-9H1094.021z"/>
    <circle cx="1068.021" cy="-143" r="2"/>
    <circle cx="1077.021" cy="-143" r="2"/>
    <circle cx="1086.021" cy="-143" r="2"/>
    <circle cx="1095.021" cy="-143" r="2"/>
  </g>
  <g class="royals-diamond">
    <path d="M1093.021-125v22.767l-11.5,6.754l-11.5-6.754V-125H1093.021 M1096.021-128h-29v27.484l14.5,8.516
      l14.5-8.516V-128L1096.021-128z"/>
    <path d="M1088.113-117.862c-1.466,1.439-2.361,3.312-2.361,5.362c0,2.051,0.895,3.923,2.361,5.362
      c1.192-1.463,1.908-3.328,1.908-5.362C1090.021-114.534,1089.305-116.399,1088.113-117.862z"/>
    <path d="M1083.752-112.5c0-2.587,1.113-4.945,2.928-6.744c-1.432-1.097-3.217-1.756-5.159-1.756
      c-1.943,0-3.728,0.659-5.159,1.756c1.816,1.8,2.928,4.157,2.928,6.744s-1.113,4.945-2.928,6.744
      c1.432,1.097,3.216,1.756,5.159,1.756c1.943,0,3.728-0.659,5.159-1.756C1084.865-107.556,1083.752-109.913,1083.752-112.5z"/>
    <path d="M1074.929-117.862c-1.191,1.463-1.908,3.328-1.908,5.362s0.716,3.9,1.908,5.363
      c1.467-1.439,2.361-3.312,2.361-5.362S1076.395-116.423,1074.929-117.862z"/>
  </g>
</svg>
