<svg xmlns="http://www.w3.org/2000/svg" viewBox="0 0 50 42">
  <polygon fill="#444444" points="44,0 42,0 42,19 44,23.387 "/>
  <path fill="#444444" d="M31,0h-2l-6.748,22.713L25.25,29.5l2.116-5.5h9.261l8.582,18H50v-1L31,0z M28.959,19l2.116-6.643L34.242,19
    H28.959z"/>
  <path fill="#444444" d="M10.685,1.901C10.218,0.905,9.185,0.002,8.084,0H4.496l19.948,42H28v-2L10.685,1.901z"/>
  <polygon fill="#444444" points="0.504,0 20.303,42 22.487,42 2.905,0 "/>
  <polygon fill="#444444" points="27.387,0 25.024,1.764 20,18 21.25,21 "/>
  <path fill="#444444" d="M48.5,0H45v25.412l5,10.799V1.5C50,0.672,49.329,0,48.5,0z"/>
</svg>
