<svg viewBox="0 0 24 24" xmlns="http://www.w3.org/2000/svg"><path d="m24 4.558c-.883.392-1.832.656-2.828.775 1.017-.609 1.797-1.575 2.165-2.725-.951.564-2.005.974-3.126 1.195-.898-.957-2.179-1.555-3.595-1.555-2.72 0-4.924 2.205-4.924 4.924 0 .386.043.762.127 1.122-4.091-.205-7.72-2.165-10.148-5.144-.424.727-.667 1.573-.667 2.475 0 1.708.87 3.215 2.19 4.098-.807-.025-1.566-.247-2.23-.616v.062c0 2.385 1.697 4.376 3.95 4.828-.414.113-.849.174-1.298.174-.317 0-.625-.031-.926-.089.627 1.956 2.445 3.38 4.6 3.42-1.685 1.32-3.808 2.107-6.115 2.107-.397 0-.79-.023-1.175-.068 2.179 1.396 4.767 2.212 7.548 2.212 9.057 0 14.009-7.503 14.009-14.01 0-.213-.004-.426-.014-.637.962-.694 1.797-1.561 2.457-2.548z" fill="#444"/></svg>