<svg xmlns="http://www.w3.org/2000/svg" viewBox="0 0 24 24">
  <path fill="#444444" d="M24,4.558c-0.883,0.392-1.832,0.656-2.828,0.775c1.017-0.609,1.797-1.575,2.165-2.725
    c-0.951,0.564-2.005,0.974-3.126,1.195c-0.898-0.957-2.179-1.555-3.595-1.555c-2.72,0-4.924,2.205-4.924,4.924
    c0,0.386,0.043,0.762,0.127,1.122C7.728,8.089,4.099,6.129,1.671,3.15C1.247,3.877,1.004,4.723,1.004,5.625
    c0,1.708,0.87,3.215,2.19,4.098c-0.807-0.025-1.566-0.247-2.23-0.616c0,0.021,0,0.041,0,0.062c0,2.385,1.697,4.376,3.95,4.828
    C4.5,14.11,4.065,14.171,3.616,14.171c-0.317,0-0.625-0.031-0.926-0.089c0.627,1.956,2.445,3.38,4.6,3.42
    c-1.685,1.32-3.808,2.107-6.115,2.107c-0.397,0-0.79-0.023-1.175-0.068c2.179,1.396,4.767,2.212,7.548,2.212
    c9.057,0,14.009-7.503,14.009-14.01c0-0.213-0.004-0.426-0.014-0.637C22.505,6.412,23.34,5.545,24,4.558z"/>
</svg>
